/* XPM */
static char * player_xpm[] = {
"50 50 197 2",
"  	c #70C0A0",
". 	c #A0D0C0",
"+ 	c #18A068",
"@ 	c #40B080",
"# 	c #262121",
"$ 	c #171515",
"% 	c #4C4141",
"& 	c #393434",
"* 	c #171414",
"= 	c #100D0D",
"- 	c #000000",
"; 	c #080808",
"> 	c #FFE3E3",
", 	c #FFD7D7",
"' 	c #FFD9D9",
") 	c #FFC6C6",
"! 	c #FFDBDB",
"~ 	c #101010",
"{ 	c #2C2C2C",
"] 	c #FFC9C9",
"^ 	c #FFC7C7",
"/ 	c #292929",
"( 	c #4A3721",
"_ 	c #5E401E",
": 	c #8E7E6B",
"< 	c #716041",
"[ 	c #34312E",
"} 	c #262323",
"| 	c #232323",
"1 	c #A29696",
"2 	c #E2C6C6",
"3 	c #0D0D0D",
"4 	c #272322",
"5 	c #554B41",
"6 	c #83725B",
"7 	c #9B8368",
"8 	c #5C3E1D",
"9 	c #68441C",
"0 	c #24242C",
"a 	c #543B1F",
"b 	c #5F411E",
"c 	c #5D3C19",
"d 	c #827155",
"e 	c #F2D9D9",
"f 	c #796767",
"g 	c #AD9C9C",
"h 	c #FFF8F8",
"i 	c #FFD6D6",
"j 	c #CCAAAA",
"k 	c #FBC3C3",
"l 	c #FFC8C8",
"m 	c #121515",
"n 	c #FFE7E7",
"o 	c #7E6A4E",
"p 	c #8D775F",
"q 	c #8F7A62",
"r 	c #593713",
"s 	c #242424",
"t 	c #3D3223",
"u 	c #A88372",
"v 	c #FFC3C3",
"w 	c #4D4141",
"x 	c #EFC6C6",
"y 	c #FFDFDF",
"z 	c #020808",
"A 	c #FFDCDC",
"B 	c #FFDADA",
"C 	c #CFAFA3",
"D 	c #5C4020",
"E 	c #282629",
"F 	c #1E2226",
"G 	c #FFD3D5",
"H 	c #040C0C",
"I 	c #FFEFEF",
"J 	c #111616",
"K 	c #FFC5C5",
"L 	c #FFD1D1",
"M 	c #EDB9B5",
"N 	c #5F411F",
"O 	c #382B35",
"P 	c #262525",
"Q 	c #2C282C",
"R 	c #62421E",
"S 	c #FFD0D0",
"T 	c #030909",
"U 	c #BB8E79",
"V 	c #302930",
"W 	c #3B2D37",
"X 	c #1D1D1D",
"Y 	c #FFD3D3",
"Z 	c #EFC3C5",
"` 	c #CBAAAA",
" .	c #463E3E",
"..	c #55391C",
"+.	c #382C35",
"@.	c #262628",
"#.	c #392B36",
"$.	c #FFCFD1",
"%.	c #DCB3B5",
"&.	c #B29191",
"*.	c #363132",
"=.	c #322A31",
"-.	c #FFCBCB",
";.	c #353131",
">.	c #2A2A2A",
",.	c #DEA5AB",
"'.	c #252527",
").	c #D59EA6",
"!.	c #816468",
"~.	c #DBB6B6",
"{.	c #FDCDCD",
"].	c #E0AAAF",
"^.	c #C79199",
"/.	c #191717",
"(.	c #131010",
"_.	c #FBBFBF",
":.	c #FCC4C4",
"<.	c #C08C94",
"[.	c #131516",
"}.	c #C18D95",
"|.	c #534545",
"1.	c #FFCACA",
"2.	c #B2848A",
"3.	c #D398A2",
"4.	c #795D61",
"5.	c #453E3E",
"6.	c #FCC6C6",
"7.	c #C18E96",
"8.	c #D99EA6",
"9.	c #A87B83",
"0.	c #1C1F1E",
"a.	c #C48E97",
"b.	c #766060",
"c.	c #CC959D",
"d.	c #0E1614",
"e.	c #C08D95",
"f.	c #3D3536",
"g.	c #6B5357",
"h.	c #E7B1B4",
"i.	c #614E4E",
"j.	c #D69EA5",
"k.	c #C59098",
"l.	c #FFD8D8",
"m.	c #B6858D",
"n.	c #705858",
"o.	c #1C1C1C",
"p.	c #FDC6C6",
"q.	c #F1BABD",
"r.	c #F0B8BB",
"s.	c #F8C2C3",
"t.	c #B7868E",
"u.	c #E3ABAF",
"v.	c #564A4B",
"w.	c #C28D95",
"x.	c #B98890",
"y.	c #141A1A",
"z.	c #DBA4A9",
"A.	c #967076",
"B.	c #C69199",
"C.	c #C18C95",
"D.	c #111717",
"E.	c #CF99A0",
"F.	c #161718",
"G.	c #E1A9AE",
"H.	c #BD8991",
"I.	c #D49EA4",
"J.	c #EAB4B7",
"K.	c #06120E",
"L.	c #1B1E1F",
"M.	c #C79299",
"N.	c #B98591",
"O.	c #DDA7AA",
"P.	c #C38E96",
"Q.	c #C7939A",
"R.	c #0A1212",
"S.	c #7A5E62",
"T.	c #DD9FA9",
"U.	c #B4848C",
"V.	c #000808",
"W.	c #DEACAC",
"X.	c #FFCECE",
"Y.	c #69595A",
"Z.	c #151B19",
"`.	c #222322",
" +	c #332A2A",
".+	c #D197A0",
"++	c #9B747A",
"@+	c #4B3E40",
"#+	c #343030",
"$+	c #3E3636",
"%+	c #252424",
"&+	c #312E2D",
"*+	c #1E1C1C",
"=+	c #73595D",
"-+	c #171919",
";+	c #2C282B",
">+	c #665154",
"        .     +         .               .     +         .               .     +         .           ",
"                                                                                                    ",
"@               @               @               @               @               @               @   ",
"                                                                                                    ",
"              .     @         .               .     @         .               .     @         .     ",
"                        +                               +                               +           ",
"                            @                               @                               @       ",
"    .               .               .               .               .               .               ",
"        .               .     +         .               .     +         .               .     +     ",
"                                          # $ % & * =                                               ",
"@               @               @     - ; > , ' ' ) ! ~         @               @               @   ",
"                          - -       - { , ' ' ' ' ] ^ ^ ~           - - - -                         ",
"    @         .       / ( _ : < [ } | , ' ' 1 - - 2 ^ ^ ! 3 - / 4 5 6 7 8 9 ( 0 -             .     ",
"        +           - a b b b c d e f ' ' g h , i j k ^ l m > n o p q p r b b b s                   ",
"            @       - t b b b u v w x ) ' y ' ) ^ l z l ^ A ) B ! C p c b b b D E                   ",
"    .               - F b b G ) H I j ^ ^ ) ^ ^ ^ ^ J K ^ ^ ^ ^ L ' M N b b 9 O P   .               ",
"        .     +       Q R G ) H S ) z ^ ^ ^ ^ ^ ^ ) T ) ^ ^ ^ ^ ^ ^ ^ U N 9 V W -       .           ",
"                      P ~ ) X Y ^ ^ Z ` ^ ^ ^ ^ ^  .Y ^ ^ ^ ^ ^ ^ ^ ^ ^ ..V +.@.                    ",
"@               @     / #.$.x K ^ ^ ^ %.T %.$.%.T Y K ^ ^ ^ ^ ^ ^ ^ ^ &.*.+.W 3 @               @   ",
"                      - =.z ) ^ ^ ^ ^ ^ ^ ' ' ' ^ ^ ^ ^ ^ ^ ^ ^ ^ ^ -.;.+.+.>.                      ",
"              .     @   P y ^ ^ ^ ^ ^ ) ^ ^ ^ ^ ^ ^ ^ ^ ^ ^ ^ ^ ^ ^ ^ ,.O '.  .     @         .     ",
"                        z ^ ^ ^ ^ -.P Y ^ ^ ^ ^ ^ P L ^ ^ ^ ^ ^ ^ ^ ^ ).!.-             +           ",
"                      - ~.^ ^ ^ ^ {.P ' ^ ^ ^ ^ > P ' ^ ^ ^ ^ ^ ^ ^ ^ ].^./.                @       ",
"    .               . (.Y ^ ^ ^ ^ _.P ^ ^ ^ ^ ^ :.P L ^ ^ ^ ^ ^ ^ ^ ^ ].<.[.        .               ",
"        .             | ^ ^ ^ ^ ^ ^ x K ^ ^ ^ ^ > z ^ ^ ^ ^ ^ ^ ^ ^ ^ ].}.|.P -         .     +     ",
"                    - m K ^ ^ ^ ^ ^ ^ 1.^ ^ ^ ^ ^ ^ ^ ^ ^ ^ ^ ^ ^ ^ ^ ].}.2.3.4.-                   ",
"@               @   P 5.^ ^ ^ ^ ^ ^ ^ [.[.[.[.T ^ ^ ^ ^ ^ ^ ^ ^ ^ ^ ^ 6.7.8.9.<.0.              @   ",
"                  / a.b.^ ^ ^ ^ ^ ^ ^ 1.i ' ' Y ^ ^ ^ ^ ^ ^ ^ ^ ^ ^ ^ ^ c.}.d.e.c./.                ",
"    @         .   f.}.g.^ ^ ^ ^ ^ ^ ^ ^ ^ ^ ^ ^ ^ ^ ^ ^ ^ ^ ^ ^ ^ ^ ^ ^ h.}.i.a.}.[.          .     ",
"        +       - 3.j.f.] ^ ^ ^ ^ ^ ^ ^ ^ ^ ^ ^ ^ ^ ^ ^ ^ ^ ^ ^ ^ ^ ^ ^ ] 7.k.3.}.|.                ",
"            @   - d.~.j z l.^ ^ ^ ^ ^ ^ ^ ^ ^ ^ ^ ^ ^ ^ ^ ^ ^ ^ ^ 6.^ ^ ] e.j.m.}.n.-               ",
"    .           o.Y 6.] p.P l.^ ^ ^ ^ ^ ^ ^ ^ ^ ^ ^ ^ L %.% % Z ^ q.r.] s.e.j.m.}.|..               ",
"        .     + $ e.e.t.u.p.;.^ ^ ^ ^ ^ ^ ^ ^ ^ ^ ^ *.v.Y ^ ^ Y z e.d.w.e.}.x.3.}.y.    .           ",
"                } e.}.}.}.z.] ^ 6.^ ^ ^ ^ ^ ^ ^ ) T Y l ] 6.] ^ y A.B.d.B.C.D.a.E.F.                ",
"@               = 3.}.}.}.}.G.^ H.I.J.6.] ^ ^ ^ T ] h.H.e.e.t.u.l m 7.c.0.K.3.e.L.              @   ",
"                  f.C.}.}.}.e.z.e.}.}.e.H.M.M.N.Y O.P.}.}.}.}.e.] T Q.R.a.}.e.S.-                   ",
"              .   o.T.}.}.}.}.}.U.C.}.}.}.}.}.V.W.e.}.}.}.}.}.}.X.Y.Z.a.}.e.`.-     @         .     ",
"                     +.+}.}.}.}.++@+T.7.}.}.e.*.H.}.}.}.}.}.}.}.#+a.a..+$+P             +           ",
"                       +.+7.}.E.P   - %+`.Z.&+P e.}.}.}.}.}.}.C.P P *+-                     @       ",
"    .               .   - P `.F.    .         } .+}.}.}.}.7.=+-+    .               .               ",
"        .               .     +         .       ;+>+.+.+=+`.- +         .               .     +     ",
"                                                    - -                                             ",
"@               @               @               @               @               @               @   ",
"                                                                                                    ",
"    @         .               .     @         .               .     @         .               .     ",
"        +                               +                               +                           ",
"            @                               @                               @                       ",
"    .               .               .               .               .               .               ",
"        .     +         .               .     +         .               .     +         .           ",
"                                                                                                    "};
