/* XPM */
static char * coin_xpm[] = {
"50 50 447 2",
"  	c #70C0A0",
". 	c #A0D0C0",
"+ 	c #18A068",
"@ 	c #40B080",
"# 	c #6FBF9F",
"$ 	c #62A98C",
"% 	c #4E866F",
"& 	c #25523D",
"* 	c #335345",
"= 	c #508871",
"- 	c #6CBA9B",
"; 	c #64AC8F",
"> 	c #3D6351",
", 	c #55803E",
"' 	c #6CA44E",
") 	c #77B654",
"! 	c #78B855",
"~ 	c #629147",
"{ 	c #426D5B",
"] 	c #6DBB9B",
"^ 	c #5FA489",
"/ 	c #58997F",
"( 	c #5DA085",
"_ 	c #98C6B6",
": 	c #6EBD9D",
"< 	c #5DA086",
"[ 	c #46683B",
"} 	c #76B554",
"| 	c #7DC158",
"1 	c #7DC058",
"2 	c #77AF53",
"3 	c #3B5036",
"4 	c #6FBE9F",
"5 	c #528E77",
"6 	c #344154",
"7 	c #423478",
"8 	c #483785",
"9 	c #44357D",
"0 	c #363759",
"a 	c #477965",
"b 	c #3F6859",
"c 	c #34424E",
"d 	c #466738",
"e 	c #7BBC56",
"f 	c #7DBF58",
"g 	c #7CBC57",
"h 	c #77B254",
"i 	c #6B954B",
"j 	c #374D36",
"k 	c #179C65",
"l 	c #457562",
"m 	c #47387C",
"n 	c #6754A9",
"o 	c #7C6BB6",
"p 	c #8172B9",
"q 	c #6F5DAF",
"r 	c #5640A3",
"s 	c #4A3889",
"t 	c #473783",
"u 	c #453E76",
"v 	c #79B855",
"w 	c #7EC158",
"x 	c #79B455",
"y 	c #6D984C",
"z 	c #688B48",
"A 	c #618144",
"B 	c #475D35",
"C 	c #4F8770",
"D 	c #6FBE9E",
"E 	c #4B806A",
"F 	c #406B5A",
"G 	c #3F3173",
"H 	c #6B58AE",
"I 	c #7B6AB6",
"J 	c #8879BD",
"K 	c #5C48A5",
"L 	c #553FA1",
"M 	c #503C97",
"N 	c #587647",
"O 	c #90C970",
"P 	c #86C364",
"Q 	c #7DB75C",
"R 	c #668947",
"S 	c #4C623F",
"T 	c #333937",
"U 	c #2B4338",
"V 	c #84AC9F",
"W 	c #92BEB0",
"X 	c #3A5A53",
"Y 	c #403276",
"Z 	c #4E3B93",
"` 	c #403470",
" .	c #56439E",
"..	c #7362B2",
"+.	c #8070B9",
"@.	c #7D6CB7",
"#.	c #6D5CAF",
"$.	c #5742A3",
"%.	c #503C95",
"&.	c #3D316C",
"*.	c #628344",
"=.	c #80AA64",
"-.	c #83AD67",
";.	c #688C49",
">.	c #424956",
",.	c #523D9C",
"'.	c #543EA0",
").	c #3E346E",
"!.	c #538F77",
"~.	c #69B597",
"{.	c #344650",
"].	c #54409A",
"^.	c #6653AA",
"/.	c #6D5AAE",
"(.	c #4A3D77",
"_.	c #5640A4",
":.	c #6B59AD",
"<.	c #6E5CAF",
"[.	c #443979",
"}.	c #597E42",
"|.	c #6A9A4B",
"1.	c #678947",
"2.	c #668847",
"3.	c #536E3B",
"4.	c #483786",
"5.	c #553FA2",
"6.	c #333754",
"7.	c #6AB798",
"8.	c #457662",
"9.	c #4D3A90",
"0.	c #6856AC",
"a.	c #6E5CB0",
"b.	c #4C417A",
"c.	c #5740A5",
"d.	c #5641A2",
"e.	c #514386",
"f.	c #4F4282",
"g.	c #503D96",
"h.	c #54703C",
"i.	c #77B154",
"j.	c #7CBD57",
"k.	c #70A14F",
"l.	c #58763F",
"m.	c #4D6538",
"n.	c #4D6438",
"o.	c #4C6142",
"p.	c #563FA3",
"q.	c #45357E",
"r.	c #5B9D83",
"s.	c #6CB99A",
"t.	c #343758",
"u.	c #5844A4",
"v.	c #50457D",
"w.	c #46377F",
"x.	c #5D49A5",
"y.	c #614DA8",
"z.	c #564499",
"A.	c #322B50",
"B.	c #618245",
"C.	c #71A34F",
"D.	c #7CBE57",
"E.	c #648545",
"F.	c #3C3465",
"G.	c #3E326D",
"H.	c #403372",
"I.	c #3F326F",
"J.	c #323B4F",
"K.	c #4E8770",
"L.	c #6EBC9D",
"M.	c #399E73",
"N.	c #5640A2",
"O.	c #6A58AD",
"P.	c #6E5BAF",
"Q.	c #5C4E93",
"R.	c #4C3D84",
"S.	c #8374BA",
"T.	c #8575BB",
"U.	c #7260B1",
"V.	c #4C398E",
"W.	c #56713D",
"X.	c #6E994C",
"Y.	c #74A951",
"Z.	c #6F9D4E",
"`.	c #658746",
" +	c #3D3565",
".+	c #6451A9",
"++	c #5E4AA6",
"@+	c #473683",
"#+	c #3F6959",
"$+	c #6EBD9E",
"%+	c #543F9E",
"&+	c #3D316A",
"*+	c #6957AD",
"=+	c #7665B3",
"-+	c #6351A9",
";+	c #503C96",
">+	c #353942",
",+	c #48574A",
"'+	c #485847",
")+	c #51693A",
"!+	c #628244",
"~+	c #546F3D",
"{+	c #4C3A8E",
"]+	c #6855AB",
"^+	c #5B48A5",
"/+	c #44357E",
"(+	c #343759",
"_+	c #4B398C",
":+	c #503F8C",
"<+	c #7E6EB8",
"[+	c #8778BD",
"}+	c #7F6FB8",
"|+	c #6D5BAE",
"1+	c #4B3E7B",
"2+	c #483981",
"3+	c #5D49A2",
"4+	c #634FA8",
"5+	c #604CA8",
"6+	c #40376F",
"7+	c #50693B",
"8+	c #4B5F3F",
"9+	c #463880",
"0+	c #6956AC",
"a+	c #5F4CA7",
"b+	c #354C4D",
"c+	c #467663",
"d+	c #523D9A",
"e+	c #3B3066",
"f+	c #554297",
"g+	c #5D4C96",
"h+	c #5C499F",
"i+	c #7968B5",
"j+	c #705EB0",
"k+	c #5E4AA7",
"l+	c #493887",
"m+	c #44367D",
"n+	c #6D5BAF",
"o+	c #6654AB",
"p+	c #393363",
"q+	c #67B193",
"r+	c #353A49",
"s+	c #413374",
"t+	c #463680",
"u+	c #4B398B",
"v+	c #6450A9",
"w+	c #6654A9",
"x+	c #8273BA",
"y+	c #897ABE",
"z+	c #423479",
"A+	c #513D99",
"B+	c #3B316A",
"C+	c #65AE91",
"D+	c #599980",
"E+	c #3F3372",
"F+	c #3F3471",
"G+	c #5741A2",
"H+	c #5741A4",
"I+	c #423476",
"J+	c #6A57AD",
"K+	c #7767B4",
"L+	c #7D6DB7",
"M+	c #5E49A6",
"N+	c #533E9D",
"O+	c #433579",
"P+	c #4F3C95",
"Q+	c #423477",
"R+	c #3F3370",
"S+	c #333A53",
"T+	c #6DBB9C",
"U+	c #385350",
"V+	c #543E9E",
"W+	c #5B47A4",
"X+	c #413476",
"Y+	c #543E9F",
"Z+	c #43357A",
"`+	c #7564B3",
" @	c #8777BC",
".@	c #8878BD",
"+@	c #5D49A6",
"@@	c #5A44A4",
"#@	c #5F4BA7",
"$@	c #5A46A5",
"%@	c #513D98",
"&@	c #477764",
"*@	c #42B081",
"=@	c #67B294",
"-@	c #392D68",
";@	c #6551AA",
">@	c #6957AC",
",@	c #392F5F",
"'@	c #523D9B",
")@	c #44357B",
"!@	c #6C59AE",
"~@	c #715FB0",
"{@	c #7160B1",
"]@	c #5742A2",
"^@	c #4A3888",
"/@	c #604BA7",
"(@	c #2D3840",
"_@	c #69B496",
":@	c #62AA8D",
"<@	c #403375",
"[@	c #6452A9",
"}@	c #553EA0",
"|@	c #4C3181",
"1@	c #432C6E",
"2@	c #392D5B",
"3@	c #3E346D",
"4@	c #624FA8",
"5@	c #6A57AC",
"6@	c #6A59AD",
"7@	c #393162",
"8@	c #67B093",
"9@	c #3A2E6A",
"0@	c #553FA0",
"a@	c #4C3180",
"b@	c #492E78",
"c@	c #392C5B",
"d@	c #322B4B",
"e@	c #6C5BAE",
"f@	c #604DA7",
"g@	c #4B398A",
"h@	c #6754AB",
"i@	c #45367E",
"j@	c #5A9B81",
"k@	c #364D52",
"l@	c #493079",
"m@	c #4B3281",
"n@	c #4C3284",
"o@	c #443072",
"p@	c #44347B",
"q@	c #5B46A4",
"r@	c #5A45A4",
"s@	c #3D316B",
"t@	c #543FA0",
"u@	c #5A46A4",
"v@	c #6E5DAF",
"w@	c #473782",
"x@	c #338A65",
"y@	c #56937B",
"z@	c #413378",
"A@	c #4F3990",
"B@	c #40316E",
"C@	c #533B98",
"D@	c #3F2E66",
"E@	c #463681",
"F@	c #3C306A",
"G@	c #48337E",
"H@	c #3C2F69",
"I@	c #61A78B",
"J@	c #648279",
"K@	c #423378",
"L@	c #4F3B91",
"M@	c #422D6D",
"N@	c #4F368C",
"O@	c #412E6A",
"P@	c #3A3261",
"Q@	c #483784",
"R@	c #523D99",
"S@	c #543D9D",
"T@	c #4D398E",
"U@	c #3B2C60",
"V@	c #3A2A5A",
"W@	c #452D71",
"X@	c #4E3589",
"Y@	c #533C99",
"Z@	c #553E9F",
"`@	c #523B97",
" #	c #4C3283",
".#	c #354D49",
"+#	c #57967D",
"@#	c #36544B",
"##	c #2C2E3B",
"$#	c #50378F",
"%#	c #4A2F7B",
"&#	c #362C53",
"*#	c #472E73",
"=#	c #4E3386",
"-#	c #4B2E7B",
";#	c #492E79",
">#	c #362A51",
",#	c #472D74",
"'#	c #4B307F",
")#	c #4B3180",
"!#	c #492E7A",
"~#	c #342D4D",
"{#	c #4D3284",
"]#	c #4A2E7A",
"^#	c #442D6F",
"/#	c #4C307F",
"(#	c #533C9A",
"_#	c #513992",
":#	c #382A55",
"<#	c #3B2A5C",
"[#	c #432D6E",
"}#	c #432D6C",
"|#	c #3E2B62",
"1#	c #313F46",
"2#	c #5C9D83",
"3#	c #3E306A",
"4#	c #523B98",
"5#	c #4E358A",
"6#	c #4A2E7B",
"7#	c #432D6D",
"8#	c #50378E",
"9#	c #412C68",
"0#	c #42705D",
"a#	c #4F8670",
"b#	c #4D836D",
"c#	c #58987F",
"d#	c #9ECDBD",
"e#	c #3B5F52",
"f#	c #432C6B",
"g#	c #4B2E7C",
"h#	c #4D3385",
"i#	c #533D9B",
"j#	c #4B307D",
"k#	c #372955",
"l#	c #8BB5A7",
"m#	c #6AB698",
"n#	c #3F6857",
"o#	c #352852",
"p#	c #402D65",
"q#	c #402C66",
"r#	c #362853",
"s#	c #365549",
"t#	c #372854",
"u#	c #4E3488",
"v#	c #513892",
"w#	c #422C6A",
"x#	c #3E6757",
"y#	c #71C0A1",
"z#	c #62A98D",
"A#	c #56937A",
"B#	c #55937A",
"C#	c #62A88C",
"D#	c #322A4B",
"E#	c #422C6B",
"F#	c #482D76",
"G#	c #462D71",
"H#	c #392B5B",
"I#	c #3DA77A",
"J#	c #63AA8D",
"K#	c #4C816C",
"L#	c #59736A",
"M#	c #44725F",
"N#	c #5A9A80",
"        .     +         .               .     +         .               .     +         .           ",
"                                                                                                    ",
"@               @               @               @               @               @               @   ",
"                                                                                                    ",
"              .     @         .               .     @         .               .     @         .     ",
"                        +                               +                               +           ",
"                            @                               @                               @       ",
"    .               .               .               .               .               .               ",
"        .               .     +         .               .     +         .               .     +     ",
"                                                                                                    ",
"@               @               @               @         # $ % & * = -         @               @   ",
"                                                        ; > , ' ) ! ~ {                             ",
"    @         .               .     @ ] ^ / ( _     : < [ } | 1 1 1 2 3 ]     .               .     ",
"        +                         4 5 6 7 8 9 0 a b c d e 1 1 f g h i j k                           ",
"            @                   # l m n o p q r s t u v 1 w x y z A B C     @                       ",
"    .               .     D ( E F G H I J J o K L M N O P Q R S T U V #             .               ",
"        .     +         W X Y Z `  .q ..+.@.#.$.%.&.*.=.-.;.>.,.'.).!.  .     +         .           ",
"                      ~.{.].^./.(._.:.<.#.:.K [.}.|.1.2.2.3.4.L L 5.6.7.                            ",
"@               @     8.9.0.<.a.b.c.d.e.f.g.Z h.i.j.k.l.m.n.o.M 5.p.q.r.        @               @   ",
"                    s.t.u.<.<.a.v.w.x.y.z.q.A.B.C.f 1 D.y 1.E.F.G.H.I.J.K.L.                        ",
"              .     M.G N.O.P.Q.R.a.S.T.U.K V.W.2.X.Y.Z.R 2.`. +d..+^.++@+#+$+.     @         .     ",
"                    ; G L L %+&+*+p J J =+-+;+>+,+'+)+!+2.2.~+{+]+<.<.<.^+/+!.          +           ",
"                    s.(+5.L _+:+q <+[+}+|+1+2+3+4+5+].6+7+8+9+5.0+<.<.<.a+L b+#             @       ",
"    .               . c+9.d+e+f+<.<.<.<.g+h+|+=+i+j+|+k+l+m+5.L K :.n+o+N.5.p+q+    .               ",
"        .             ~.r+s+t+u+v+<.<.w+k+<.x+y+J }+<.|+N.z+A+L p.5.N.L L L B+C+        .     +     ",
"                      D+E+5.d+F+L G+H+I+J+K+J J [+L+q <.M+N+O+P+Q+R+H.9.L p.S+T+                    ",
"@               @   # U+V+W+N.X+Z L Y+Z+/.`+ @.@+.j+<.<.+@5.7 5.@@#@$@%@d+Z &@  *@              @   ",
"                    =@-@;@<.>@N+,@l+'@)@!@<.~@{@<.<.<.#.]@L ^@/@<.<.<.#@Z (@_@                      ",
"    @         .     :@<@[@<.>@}@|@1@2@3@v+<.<.<.<.<.<.4@L L '.5@<.<.<.6@5.7@=@.               .     ",
"        +           8@9@L K d.0@a@b@c@d@Y+.+n+<.<.e@f@L L %.g@h@<.<.<.O.L i@j@                      ",
"            @       D k@L L L V+l@m@n@o@p@5.d.q@r@N.L L L s@t@u@:.v@e@u@L w@x@                      ",
"    .               . y@z@5.L A@B@0@0@C@D@E@p.L L L L L F@G@0@L L u@G+L Y+H@I@      .               ",
"        .     +       # J@K@L@M@9.L L 0@N@O@P@Q@R@S@T@U@V@W@X@Y@Y+Z@Z@`@ #.#: +         .           ",
"                        # +#@###'@L L L $#%#&#*#l@=#|@-#;#>#,#%#'#)#)#!#~#(                         ",
"@               @             c+P+L L }@{#]#^#/#(#0@}@_#%#b@:#<#[#}#|#1#2#      @               @   ",
"                              j@3#4#Y@5#]#6#7#8#L L L 0@'#]#9#0#a#b#c#s.                            ",
"              .     @         d#e#f#g#]#]#]#V@h#Y+L L i#j#6#k#l#              .     @         .     ",
"                        +       m#n#o#p#q#r#s#t#u#v#$#a@]#w#x##   y#  y#                +           ",
"                            @     # z#A#B#C#D K.D#E#F#G#H#e#I#  y#                          @       ",
"    .               .               .           J#K#L#M#N#:         .               .               ",
"        .               .     +         .               .   y#+         .               .     +     ",
"                                                    y#y#y#                                          ",
"@               @               @               @               @               @               @   ",
"                                                                                                    ",
"    @         .               .     @         .               .     @         .               .     ",
"        +                               +                               +                           ",
"            @                               @                               @                       ",
"    .               .               .               .               .               .               ",
"        .     +         .               .     +         .               .     +         .           ",
"                                                                                                    "};
