/* XPM */
static char * exit_xpm[] = {
"50 50 14 1",
" 	c #70C0A0",
".	c #A0D0C0",
"+	c #18A068",
"@	c #40B080",
"#	c #75BBA0",
"$	c #707888",
"%	c #404048",
"&	c #A8A858",
"*	c #E8E8A0",
"=	c #101018",
"-	c #C8C868",
";	c #788048",
">	c #58B08B",
",	c #79BEA5",
"    .  +    .       .  +    .       .  +    .     ",
"                                                  ",
"@       @       @       @       @       @       @ ",
"                                                  ",
"       .  @    .       .  @    .       .  @    .  ",
"            +               +               +     ",
"              @               @               @   ",
"  .       .       .       .       .       .       ",
"    .       .  +    .       .  +    .       .  +  ",
"                                                  ",
"@       @       @       @       @       @       @ ",
"                                                  ",
"  @    .       .  @    .       .  @    .       .  ",
"    +               +               +             ",
"      @               @               @           ",
"  .       .       .       .       .       .       ",
"    .  +    .       .  +    .   #   .  +    .     ",
"                                #                 ",
"@       @       @   $%%%%%%$    @       @       @ ",
"                  $%%%%%%%%%%$                    ",
"       .  @    . $%%&*&%%%%%%%$.       .  @    .  ",
"            +   $%%%***%===%%%%$            +     ",
"              @ %%=%---*%====%%%              @   ",
"  .       .     %==%-;%-*%=====%# .       .       ",
"    .       .  +===%-;=%-*%=====#   .       .  +  ",
"                ===;-;==%-*;%%==                  ",
"@       @       %=%--%===%-%**;=>       @       @ ",
"                $=%-;%&===%%*-&=                  ",
"  @    .       .$%%;;%;&==%;-;%$, @    .       .  ",
"    +            $%;;%=;&=%-&;%$    +             ",
"      @           $=;===;&=&&%$       @           ",
"  .       .       .$=========$    .       .       ",
"    .  +    .   ##  .  +    .  ##   .  +    .     ",
"                ###     ##     ##                 ",
"@       @       @       @       @       @       @ ",
"                                                  ",
"       .  @    .       .  @    .       .  @    .  ",
"            +               +               +     ",
"              @               @               @   ",
"  .       .       .       .       .       .       ",
"    .       .  +    .       .  +    .       .  +  ",
"                                                  ",
"@       @       @       @       @       @       @ ",
"                                                  ",
"  @    .       .  @    .       .  @    .       .  ",
"    +               +               +             ",
"      @               @               @           ",
"  .       .       .       .       .       .       ",
"    .  +    .       .  +    .       .  +    .     ",
"                                                  "};
