/* XPM */
static char * spaces_xpm[] = {
"47 48 4 1",
" 	c #70C0A0",
".	c #A0D0C0",
"+	c #18A068",
"@	c #40B080",
"    .  +    .       .  +    .       .  +    .  ",
"                                               ",
"@       @       @       @       @       @      ",
"                                               ",
"       .  @    .       .  @    .       .  @    ",
"            +               +               +  ",
"              @               @               @",
"  .       .       .       .       .       .    ",
"    .       .  +    .       .  +    .       .  ",
"                                               ",
"@       @       @       @       @       @      ",
"                                               ",
"  @    .       .  @    .       .  @    .       ",
"    +               +               +          ",
"      @               @               @        ",
"  .       .       .       .       .       .    ",
"    .  +    .       .  +    .       .  +    .  ",
"                                               ",
"@       @       @       @       @       @      ",
"                                               ",
"       .  @    .       .  @    .       .  @    ",
"            +               +               +  ",
"              @               @               @",
"  .       .       .       .       .       .    ",
"    .       .  +    .       .  +    .       .  ",
"                                               ",
"@       @       @       @       @       @      ",
"                                               ",
"  @    .       .  @    .       .  @    .       ",
"    +               +               +          ",
"      @               @               @        ",
"  .       .       .       .       .       .    ",
"    .  +    .       .  +    .       .  +    .  ",
"                                               ",
"@       @       @       @       @       @      ",
"                                               ",
"       .  @    .       .  @    .       .  @    ",
"            +               +               +  ",
"              @               @               @",
"  .       .       .       .       .       .    ",
"    .       .  +    .       .  +    .       .  ",
"                                               ",
"@       @       @       @       @       @      ",
"                                               ",
"  @    .       .  @    .       .  @    .       ",
"    +               +               +          ",
"      @               @               @        ",
"  .       .       .       .       .       .    "};
