/* XPM */
static char * wall_xpm[] = {
"50 50 10 1",
" 	c #70C0A0",
".	c #A0D0C0",
"+	c #18A068",
"@	c #40B080",
"#	c #388830",
"$	c #385000",
"%	c #B0F880",
"&	c #80C060",
"*	c #403830",
"=	c #685858",
"    .  +    .       .  +    .       .  +    .     ",
"                                                  ",
"@       @       @       @       @       @       @ ",
"                                                  ",
"       .  @    .       .  @    .       .  @    .  ",
"            +               +               +     ",
"              @               @               @   ",
"  .       .       .       .       .       .       ",
"    .       .  +    .       .  +    .       .  +  ",
"                        ##                        ",
"@       @       @      $%%$     @       @       @ ",
"                      $#%%#$                      ",
"  @    .       .  @ ##%#%&#%## .  @    .       .  ",
"    +              #%#%#%&#%#%#     +             ",
"      @           ###&$%%&&&$%###     @           ",
"  .       .      #%%%&#%%&&&#&%%% .       .       ",
"    .  +    .    $&%&%%%%%%&&%#%&   .  +    .     ",
"                #$$#%%%%%%%%&%%#$#                ",
"@       @      #%%$%%#%%%%%%%#%%$%#     @       @ ",
"              $%%&#%#&%%%%%%%&#%#%%$              ",
"       .  @    $#%&$#%%&%%%#%%#$&#$    .  @    .  ",
"            + $&%&##$$%#%%%#%$$##%&$        +     ",
"             ##$###&&&$$%%$$&&&###$##         @   ",
"  .       . #&&$$%%%&#&&$$&&#&%%%$$&&#    .       ",
"    .       .$&$%%#%%#%&&&&%#%%#%%$&$       .  +  ",
"            $&&&$$%%#$%#%%#%$#%%$$&&&$            ",
"@       @   $#$#&#$%$$$&%%&$$$%$#&#$#$  @       @ ",
"           $$$&&&&#$##$%%%%$##$#&&&&$$            ",
"  @    .    $$$#&&#####$%%$#####&&#$$$ .       .  ",
"    +      $&&$&&##&&#$#$$#$#&&##&&$&&$           ",
"      @   $&###$#$&&&&$#&&#$&&&&$#$###&$          ",
"  .       .$$###$$&&&$##&&##$&&&$$###$$   .       ",
"    .  +   $&&#$$$$&$#$&&&&$#$&$$$$#&&$+    .     ",
"            $$$####$$$#$&&$#$$$####$$$            ",
"@       @     $##$$##$$$##$$$##$$##$    @       @ ",
"               $$$##$$##$$##$$##$$$               ",
"       .  @    $####$########$####$    .  @    .  ",
"            +   $$#$#$######$#$#$$          +     ",
"              @#$$$$$###$$#####$$$#           @   ",
"  .       .   #$$$$$$*$#$=#$*###$$$#      .       ",
"    .       . #$$$$$**======**#$$$$#.       .  +  ",
"                                                  ",
"@       @       @       @       @       @       @ ",
"                                                  ",
"  @    .       .  @    .       .  @    .       .  ",
"    +               +               +             ",
"      @               @               @           ",
"  .       .       .       .       .       .       ",
"    .  +    .       .  +    .       .  +    .     ",
"                                                  "};
